<svg xmlns="http://www.w3.org/2000/svg" viewBox="0 0 64 64" id="web-coding">
    <path fill="#e6e7e8" d="M62 19v34a4 4 0 0 1-4 4H6a4 4 0 0 1-4-4V19Z"></path>
    <path fill="#00459a" d="M62 11v8H2v-8a4 4 0 0 1 4-4h52a4 4 0 0 1 4 4Z"></path>
    <path
        d="M58 5H6a6 6 0 0 0-6 6v42a6 6 0 0 0 6 6h52a6 6 0 0 0 6-6V11a6 6 0 0 0-6-6ZM6 9h52a2 2 0 0 1 2 2v6H4v-6a2 2 0 0 1 2-2Zm52 46H6a2 2 0 0 1-2-2V21h56v32a2 2 0 0 1-2 2Z"></path>
    <path
        d="M54 11h4v4h-4zM48 11h4v4h-4zM42 11h4v4h-4zM22.74 25.47l-11.2 11.2a2 2 0 0 0-.54 1.41 2 2 0 0 0 .58 1.42l11.2 11.19 2.83-2.82-9.79-9.79 9.79-9.78zm18.52 0-2.83 2.83 9.79 9.78-9.79 9.79 2.83 2.82 11.2-11.19a2 2 0 0 0 .54-1.42 2 2 0 0 0-.58-1.41z"></path>
</svg>